<?xml version="1.0" encoding="UTF-8" standalone="no"?>
<!-- Created with Inkscape (http://www.inkscape.org/) -->

<svg
   xmlns:osb="http://www.openswatchbook.org/uri/2009/osb"
   xmlns:dc="http://purl.org/dc/elements/1.1/"
   xmlns:cc="http://creativecommons.org/ns#"
   xmlns:rdf="http://www.w3.org/1999/02/22-rdf-syntax-ns#"
   xmlns:svg="http://www.w3.org/2000/svg"
   xmlns="http://www.w3.org/2000/svg"
   xmlns:sodipodi="http://sodipodi.sourceforge.net/DTD/sodipodi-0.dtd"
   xmlns:inkscape="http://www.inkscape.org/namespaces/inkscape"
   width="2732"
   height="2732"
   viewBox="0 0 2732 2732.0003"
   id="svg16291"
   version="1.1"
   inkscape:version="0.91 r13725"
   sodipodi:docname="splash.svg"
   inkscape:export-filename="/Applications/XAMPP/xamppfiles/htdocs/PeopleConnect/peopleConnect/resources/splash.png"
   inkscape:export-xdpi="90"
   inkscape:export-ydpi="90">
  <defs
     id="defs16293">
    <linearGradient
       id="linearGradient7529"
       osb:paint="gradient">
      <stop
         style="stop-color:#00cdff;stop-opacity:0.99215686;"
         offset="0"
         id="stop7531" />
      <stop
         style="stop-color:#000000;stop-opacity:0;"
         offset="1"
         id="stop7533" />
    </linearGradient>
    <inkscape:perspective
       sodipodi:type="inkscape:persp3d"
       inkscape:vp_x="0 : 250.00001 : 1"
       inkscape:vp_y="0 : 1000 : 0"
       inkscape:vp_z="1024 : 250.00001 : 1"
       inkscape:persp3d-origin="511.99998 : 166.66668 : 1"
       id="perspective4220" />
  </defs>
  <sodipodi:namedview
     id="base"
     pagecolor="#ffffff"
     bordercolor="#666666"
     borderopacity="1.0"
     inkscape:pageopacity="0.0"
     inkscape:pageshadow="2"
     inkscape:zoom="0.088819175"
     inkscape:cx="540.9081"
     inkscape:cy="218.99096"
     inkscape:document-units="px"
     inkscape:current-layer="layer13"
     showgrid="false"
     inkscape:window-width="1280"
     inkscape:window-height="704"
     inkscape:window-x="0"
     inkscape:window-y="1"
     inkscape:window-maximized="1"
     units="px"
     borderlayer="true" />
  <metadata
     id="metadata16296">
    <rdf:RDF>
      <cc:Work
         rdf:about="">
        <dc:format>image/svg+xml</dc:format>
        <dc:type
           rdf:resource="http://purl.org/dc/dcmitype/StillImage" />
        <dc:title></dc:title>
      </cc:Work>
    </rdf:RDF>
  </metadata>
  <g
     inkscape:label="Layer 1"
     inkscape:groupmode="layer"
     id="layer1"
     transform="translate(0,1679.6381)"
     style="display:inline" />
  <g
     inkscape:groupmode="layer"
     id="layer13"
     inkscape:label="Layer 3"
     transform="translate(0,2200.5043)"
     style="display:inline">
    <circle
       style="display:inline;opacity:1;fill:#00bfff;fill-opacity:1;stroke:#000000;stroke-width:0;stroke-linecap:round;stroke-linejoin:round;stroke-miterlimit:4;stroke-dasharray:none;stroke-dashoffset:0;stroke-opacity:1"
       id="path4204"
       cx="1425.0951"
       cy="-964.32208"
       r="357.38477" />
    <g
       id="g4253"
       style="font-style:normal;font-weight:normal;font-size:75px;line-height:125%;font-family:sans-serif;letter-spacing:0px;word-spacing:0px;display:inline;fill:#000000;fill-opacity:1;stroke:none;stroke-width:1px;stroke-linecap:butt;stroke-linejoin:miter;stroke-opacity:1"
       transform="matrix(7.2113296,0,0,7.2113296,400.75693,-4202.863)">
      <path
         id="path4255"
         style="font-style:normal;font-variant:normal;font-weight:normal;font-stretch:normal;font-size:25.00000381px;font-family:Tahoma;-inkscape-font-specification:Tahoma;fill:#000000"
         d="m 72.848086,513.56897 q 0,1.18408 -0.427247,2.24609 -0.415039,1.04981 -1.159668,1.79444 -0.939941,0.92773 -2.209473,1.4038 -1.269531,0.47608 -3.210449,0.47608 l -2.050782,0 0,6.7749 -2.416993,0 0,-18.17627 4.565431,0 q 1.611328,0 2.746582,0.26855 1.135254,0.26856 2.001954,0.8667 1.013183,0.6958 1.586914,1.77002 0.573731,1.06202 0.573731,2.57569 z m -2.514649,0.061 q 0,-0.93994 -0.32959,-1.63574 -0.317383,-0.6958 -0.976563,-1.13525 -0.57373,-0.37842 -1.342773,-0.53711 -0.756837,-0.15869 -1.892091,-0.15869 l -2.001953,0 0,7.26318 1.647949,0 q 1.464844,0 2.368165,-0.23193 0.90332,-0.24414 1.501465,-0.8545 0.537109,-0.54931 0.78125,-1.19628 0.244141,-0.64698 0.244141,-1.51368 z"
         inkscape:connector-curvature="0" />
      <path
         id="path4257"
         style="font-style:normal;font-variant:normal;font-weight:normal;font-stretch:normal;font-size:25.00000381px;font-family:Tahoma;-inkscape-font-specification:Tahoma;fill:#000000"
         d="m 80.343204,526.58167 q -3.259278,0 -5.065919,-1.83106 -1.794434,-1.84326 -1.794434,-5.22461 0,-3.33252 1.745606,-5.29785 1.745606,-1.97754 4.56543,-1.97754 1.269532,0 2.246094,0.36621 0.976563,0.36621 1.708985,1.14746 0.732422,0.78125 1.123047,1.9165 0.390625,1.12305 0.390625,2.75879 l 0,1.24512 -9.448244,0 q 0,2.38037 1.19629,3.6377 1.196289,1.25732 3.308106,1.25732 0.756836,0 1.477051,-0.1709 0.732422,-0.1709 1.318359,-0.43945 0.622559,-0.28076 1.049805,-0.53711 0.427246,-0.26855 0.708008,-0.50049 l 0.134277,0 0,2.50244 q -0.402832,0.1587 -1.000976,0.40284 -0.598145,0.23193 -1.074219,0.36621 -0.671387,0.1831 -1.220704,0.28076 -0.537109,0.0977 -1.367187,0.0977 z m 2.685547,-8.65479 q -0.02441,-0.92774 -0.219727,-1.59912 -0.195312,-0.67139 -0.561523,-1.13526 -0.402832,-0.51269 -1.037598,-0.78125 -0.622559,-0.26855 -1.550293,-0.26855 -0.915528,0 -1.5625,0.28076 -0.634766,0.26855 -1.159668,0.79346 -0.512696,0.53711 -0.781251,1.19629 -0.268554,0.64697 -0.341797,1.51367 l 7.214357,0 z"
         inkscape:connector-curvature="0" />
      <path
         id="path4259"
         style="font-style:normal;font-variant:normal;font-weight:normal;font-stretch:normal;font-size:25.00000381px;font-family:Tahoma;-inkscape-font-specification:Tahoma;fill:#000000"
         d="m 98.824652,519.45276 q 0,3.44238 -1.660157,5.32226 -1.660156,1.86768 -4.418946,1.86768 -2.844238,0 -4.479981,-1.92871 -1.623535,-1.94092 -1.623535,-5.26123 0,-3.41797 1.672363,-5.31006 1.684571,-1.89209 4.431153,-1.89209 2.75879,0 4.418946,1.89209 1.660157,1.87988 1.660157,5.31006 z m -2.368165,0 q 0,-2.64893 -0.964355,-3.93067 -0.964356,-1.29394 -2.746583,-1.29394 -1.794434,0 -2.770996,1.29394 -0.964356,1.28174 -0.964356,3.93067 0,2.56347 0.964356,3.89404 0.976562,1.31836 2.770996,1.31836 1.77002,0 2.734376,-1.29394 0.976562,-1.30616 0.976562,-3.91846 z"
         inkscape:connector-curvature="0" />
      <path
         id="path4261"
         style="font-style:normal;font-variant:normal;font-weight:normal;font-stretch:normal;font-size:25.00000381px;font-family:Tahoma;-inkscape-font-specification:Tahoma;fill:#000000"
         d="m 112.6186,519.08655 q 0,3.40576 -1.63574,5.43213 -1.62354,2.01416 -4.11377,2.01416 -1.01319,0 -1.79444,-0.23194 -0.78125,-0.23193 -1.59912,-0.72021 l 0,5.71289 -2.29492,0 0,-18.66455 2.29492,0 0,1.42822 q 0.8545,-0.76904 1.89209,-1.28174 1.04981,-0.5249 2.28272,-0.5249 2.34375,0 3.6499,1.85547 1.31836,1.85547 1.31836,4.98047 z m -2.36816,0.25634 q 0,-2.33154 -0.74463,-3.61328 -0.74463,-1.29394 -2.417,-1.29394 -0.97656,0 -1.89209,0.43945 -0.90332,0.42725 -1.72119,1.11084 l 0,7.72705 q 0.90332,0.43946 1.53809,0.59815 0.64697,0.15869 1.47705,0.15869 1.78223,0 2.771,-1.30615 0.98877,-1.30616 0.98877,-3.82081 z"
         inkscape:connector-curvature="0" />
      <path
         id="path4263"
         style="font-style:normal;font-variant:normal;font-weight:normal;font-stretch:normal;font-size:25.00000381px;font-family:Tahoma;-inkscape-font-specification:Tahoma;fill:#000000"
         d="m 117.34272,526.26428 -2.29492,0 0,-18.99414 2.29492,0 0,18.99414 z"
         inkscape:connector-curvature="0" />
      <path
         id="path4265"
         style="font-style:normal;font-variant:normal;font-weight:normal;font-stretch:normal;font-size:25.00000381px;font-family:Tahoma;-inkscape-font-specification:Tahoma;fill:#000000"
         d="m 126.63227,526.58167 q -3.25928,0 -5.06592,-1.83106 -1.79443,-1.84326 -1.79443,-5.22461 0,-3.33252 1.74561,-5.29785 1.7456,-1.97754 4.56543,-1.97754 1.26953,0 2.24609,0.36621 0.97656,0.36621 1.70898,1.14746 0.73243,0.78125 1.12305,1.9165 0.39063,1.12305 0.39063,2.75879 l 0,1.24512 -9.44825,0 q 0,2.38037 1.19629,3.6377 1.19629,1.25732 3.30811,1.25732 0.75683,0 1.47705,-0.1709 0.73242,-0.1709 1.31836,-0.43945 0.62256,-0.28076 1.0498,-0.53711 0.42725,-0.26855 0.70801,-0.50049 l 0.13428,0 0,2.50244 q -0.40283,0.1587 -1.00098,0.40284 -0.59814,0.23193 -1.07422,0.36621 -0.67138,0.1831 -1.2207,0.28076 -0.53711,0.0977 -1.36719,0.0977 z m 2.68555,-8.65479 q -0.0244,-0.92774 -0.21973,-1.59912 -0.19531,-0.67139 -0.56152,-1.13526 -0.40283,-0.51269 -1.0376,-0.78125 -0.62256,-0.26855 -1.55029,-0.26855 -0.91553,0 -1.5625,0.28076 -0.63477,0.26855 -1.15967,0.79346 -0.5127,0.53711 -0.78125,1.19629 -0.26856,0.64697 -0.3418,1.51367 l 7.21436,0 z"
         inkscape:connector-curvature="0" />
      <path
         id="path4267"
         style="font-style:normal;font-variant:normal;font-weight:normal;font-stretch:normal;font-size:25.00000381px;font-family:Tahoma;-inkscape-font-specification:Tahoma;fill:#000000"
         d="m 141.18305,526.59387 q -1.78222,0 -3.28369,-0.59814 -1.48926,-0.59815 -2.57568,-1.78223 -1.08643,-1.18408 -1.68457,-2.9541 -0.59815,-1.77002 -0.59815,-4.06494 0,-2.28272 0.57373,-3.9795 0.58594,-1.69677 1.69678,-2.9541 1.08643,-1.2207 2.57568,-1.85547 1.48926,-0.64697 3.33252,-0.64697 0.91553,0 1.70899,0.13428 0.80566,0.13427 1.48926,0.34179 0.58593,0.18311 1.19629,0.46387 0.62256,0.26856 1.2207,0.59815 l 0,2.91748 -0.19531,0 q -0.31739,-0.29297 -0.81787,-0.70801 -0.50049,-0.41504 -1.22071,-0.81787 -0.6958,-0.37842 -1.51367,-0.62256 -0.81787,-0.24414 -1.89209,-0.24414 -1.15967,0 -2.19727,0.47607 -1.03759,0.47608 -1.81884,1.40381 -0.76905,0.92774 -1.19629,2.33155 -0.42725,1.4038 -0.42725,3.16162 0,1.86767 0.45166,3.22265 0.45166,1.34278 1.23291,2.27051 0.75684,0.90332 1.78223,1.36719 1.02539,0.45166 2.17285,0.45166 1.04981,0 1.94092,-0.25635 0.89111,-0.25635 1.58691,-0.64697 0.67139,-0.37842 1.15967,-0.76904 0.48828,-0.40284 0.76904,-0.6836 l 0.18311,0 0,2.88086 q -0.59814,0.28076 -1.13525,0.53711 -0.52491,0.25635 -1.28174,0.50049 -0.79346,0.25635 -1.47705,0.39062 -0.67139,0.13428 -1.75782,0.13428 z"
         inkscape:connector-curvature="0" />
      <path
         id="path4269"
         style="font-style:normal;font-variant:normal;font-weight:normal;font-stretch:normal;font-size:25.00000381px;font-family:Tahoma;-inkscape-font-specification:Tahoma;fill:#000000"
         d="m 160.10396,519.45276 q 0,3.44238 -1.66016,5.32226 -1.66015,1.86768 -4.41894,1.86768 -2.84424,0 -4.47998,-1.92871 -1.62354,-1.94092 -1.62354,-5.26123 0,-3.41797 1.67236,-5.31006 1.68458,-1.89209 4.43116,-1.89209 2.75879,0 4.41894,1.89209 1.66016,1.87988 1.66016,5.31006 z m -2.36816,0 q 0,-2.64893 -0.96436,-3.93067 -0.96436,-1.29394 -2.74658,-1.29394 -1.79444,0 -2.771,1.29394 -0.96435,1.28174 -0.96435,3.93067 0,2.56347 0.96435,3.89404 0.97656,1.31836 2.771,1.31836 1.77002,0 2.73437,-1.29394 0.97657,-1.30616 0.97657,-3.91846 z"
         inkscape:connector-curvature="0" />
      <path
         id="path4271"
         style="font-style:normal;font-variant:normal;font-weight:normal;font-stretch:normal;font-size:25.00000381px;font-family:Tahoma;-inkscape-font-specification:Tahoma;fill:#000000"
         d="m 173.17769,526.26428 -2.29492,0 0,-7.76367 q 0,-0.93994 -0.0977,-1.74561 -0.0855,-0.81787 -0.34179,-1.30615 -0.28077,-0.51269 -0.78126,-0.75684 -0.50048,-0.25634 -1.36718,-0.25634 -0.8545,0 -1.77002,0.46386 -0.90332,0.45166 -1.77002,1.18409 l 0,10.18066 -2.29492,0 0,-13.63525 2.29492,0 0,1.51367 q 1.02539,-0.91553 2.02637,-1.40381 1.00097,-0.48828 2.11181,-0.48828 2.01416,0 3.14942,1.33056 1.13525,1.31836 1.13525,3.83301 l 0,8.8501 z"
         inkscape:connector-curvature="0" />
      <path
         id="path4273"
         style="font-style:normal;font-variant:normal;font-weight:normal;font-stretch:normal;font-size:25.00000381px;font-family:Tahoma;-inkscape-font-specification:Tahoma;fill:#000000"
         d="m 187.14253,526.26428 -2.29492,0 0,-7.76367 q 0,-0.93994 -0.0977,-1.74561 -0.0854,-0.81787 -0.3418,-1.30615 -0.28076,-0.51269 -0.78125,-0.75684 -0.50049,-0.25634 -1.36719,-0.25634 -0.85449,0 -1.77002,0.46386 -0.90332,0.45166 -1.77002,1.18409 l 0,10.18066 -2.29492,0 0,-13.63525 2.29492,0 0,1.51367 q 1.02539,-0.91553 2.02637,-1.40381 1.00098,-0.48828 2.11182,-0.48828 2.01416,0 3.14941,1.33056 1.13525,1.31836 1.13525,3.83301 l 0,8.8501 z"
         inkscape:connector-curvature="0" />
      <path
         id="path4275"
         style="font-style:normal;font-variant:normal;font-weight:normal;font-stretch:normal;font-size:25.00000381px;font-family:Tahoma;-inkscape-font-specification:Tahoma;fill:#000000"
         d="m 196.31001,526.58167 q -3.25927,0 -5.06591,-1.83106 -1.79444,-1.84326 -1.79444,-5.22461 0,-3.33252 1.74561,-5.29785 1.7456,-1.97754 4.56543,-1.97754 1.26953,0 2.24609,0.36621 0.97656,0.36621 1.70899,1.14746 0.73242,0.78125 1.12304,1.9165 0.39063,1.12305 0.39063,2.75879 l 0,1.24512 -9.44825,0 q 0,2.38037 1.19629,3.6377 1.19629,1.25732 3.30811,1.25732 0.75684,0 1.47705,-0.1709 0.73242,-0.1709 1.31836,-0.43945 0.62256,-0.28076 1.04981,-0.53711 0.42724,-0.26855 0.708,-0.50049 l 0.13428,0 0,2.50244 q -0.40283,0.1587 -1.00098,0.40284 -0.59814,0.23193 -1.07422,0.36621 -0.67138,0.1831 -1.2207,0.28076 -0.53711,0.0977 -1.36719,0.0977 z m 2.68555,-8.65479 q -0.0244,-0.92774 -0.21973,-1.59912 -0.19531,-0.67139 -0.56152,-1.13526 -0.40283,-0.51269 -1.0376,-0.78125 -0.62256,-0.26855 -1.55029,-0.26855 -0.91553,0 -1.5625,0.28076 -0.63477,0.26855 -1.15967,0.79346 -0.51269,0.53711 -0.78125,1.19629 -0.26855,0.64697 -0.3418,1.51367 l 7.21436,0 z"
         inkscape:connector-curvature="0" />
      <path
         id="path4277"
         style="font-style:normal;font-variant:normal;font-weight:normal;font-stretch:normal;font-size:25.00000381px;font-family:Tahoma;-inkscape-font-specification:Tahoma;fill:#000000"
         d="m 208.99312,526.56946 q -1.40381,0 -2.57568,-0.42725 -1.17188,-0.43945 -2.01417,-1.31836 -0.84228,-0.8789 -1.30615,-2.20947 -0.46386,-1.34277 -0.46386,-3.14942 0,-1.79443 0.47607,-3.10058 0.48828,-1.30615 1.29394,-2.19727 0.80567,-0.89111 2.00196,-1.36719 1.20849,-0.48828 2.58789,-0.48828 1.12305,0 2.16064,0.31739 1.04981,0.31738 1.86768,0.73242 l 0,2.57568 -0.13428,0 q -0.24414,-0.20752 -0.63476,-0.47607 -0.37842,-0.26856 -0.92774,-0.54932 -0.47607,-0.24414 -1.12304,-0.42724 -0.64698,-0.18311 -1.24512,-0.18311 -1.78223,0 -2.86865,1.35498 -1.07422,1.34277 -1.07422,3.80859 0,2.417 1.03759,3.77198 1.04981,1.34277 2.90528,1.34277 1.12305,0 2.13623,-0.46387 1.01318,-0.46386 1.79443,-1.19628 l 0.13428,0 0,2.57568 q -0.3418,0.15869 -0.85449,0.39062 -0.5127,0.21973 -0.92774,0.32959 -0.58593,0.1709 -1.0498,0.25635 -0.46387,0.0977 -1.19629,0.0977 z"
         inkscape:connector-curvature="0" />
      <path
         id="path4279"
         style="font-style:normal;font-variant:normal;font-weight:normal;font-stretch:normal;font-size:25.00000381px;font-family:Tahoma;-inkscape-font-specification:Tahoma;fill:#000000"
         d="m 219.27144,526.53284 q -1.87988,0 -2.92969,-1.06201 -1.0498,-1.07422 -1.0498,-3.38135 l 0,-7.55616 -1.5503,0 0,-1.90429 1.5503,0 0,-3.91846 2.29492,0 0,3.91846 4.22363,0 0,1.90429 -4.22363,0 0,6.48194 q 0,1.0376 0.0366,1.59912 0.0366,0.56152 0.28076,1.0498 0.20752,0.42725 0.67139,0.64698 0.46387,0.20752 1.25732,0.20752 0.56153,0 1.08643,-0.15869 0.5249,-0.1709 0.75684,-0.28077 l 0.13427,0 0,2.06299 q -0.64697,0.18311 -1.31836,0.28076 -0.65918,0.10987 -1.2207,0.10987 z"
         inkscape:connector-curvature="0" />
    </g>
  </g>
  <g
     inkscape:groupmode="layer"
     id="layer12"
     inkscape:label="Layer 2"
     transform="translate(0,2200.5043)"
     style="display:inline">
    <circle
       style="opacity:1;fill:#8a2be2;fill-opacity:1;stroke:#000000;stroke-width:0;stroke-linecap:round;stroke-linejoin:round;stroke-miterlimit:4;stroke-dasharray:none;stroke-dashoffset:0;stroke-opacity:1"
       id="path4162"
       cx="1429.27"
       cy="-1300.1832"
       r="140.56071" />
    <rect
       style="opacity:1;fill:#8a2be2;fill-opacity:1;stroke:#000000;stroke-width:0;stroke-linecap:round;stroke-linejoin:round;stroke-miterlimit:4;stroke-dasharray:none;stroke-dashoffset:0;stroke-opacity:1"
       id="rect4164"
       width="490.09586"
       height="324.54041"
       x="1179.9943"
       y="-1151.1853"
       ry="62.533665" />
    <circle
       r="89.541443"
       cy="-1093.0875"
       cx="891.38245"
       id="circle4176"
       style="opacity:1;fill:#00bfff;fill-opacity:1;stroke:#000000;stroke-width:0;stroke-linecap:round;stroke-linejoin:round;stroke-miterlimit:4;stroke-dasharray:none;stroke-dashoffset:0;stroke-opacity:1" />
    <rect
       ry="39.835842"
       y="-998.1712"
       x="732.58612"
       height="206.74208"
       width="312.2059"
       id="rect4178"
       style="opacity:1;fill:#8a2be2;fill-opacity:1;stroke:#000000;stroke-width:0;stroke-linecap:round;stroke-linejoin:round;stroke-miterlimit:4;stroke-dasharray:none;stroke-dashoffset:0;stroke-opacity:1" />
    <circle
       style="opacity:1;fill:#8a2be2;fill-opacity:1;stroke:#000000;stroke-width:0;stroke-linecap:round;stroke-linejoin:round;stroke-miterlimit:4;stroke-dasharray:none;stroke-dashoffset:0;stroke-opacity:1"
       id="circle4180"
       cx="1963.046"
       cy="-1099.0297"
       r="89.541443" />
    <rect
       style="opacity:1;fill:#00bfff;fill-opacity:1;stroke:#000000;stroke-width:0;stroke-linecap:round;stroke-linejoin:round;stroke-miterlimit:4;stroke-dasharray:none;stroke-dashoffset:0;stroke-opacity:1"
       id="rect4182"
       width="312.2059"
       height="206.74208"
       x="1804.2496"
       y="-1004.1132"
       ry="39.835842" />
    <g
       transform="matrix(7.2113296,0,0,7.2113296,397.28472,-4207.1851)"
       style="font-style:normal;font-weight:normal;font-size:75px;line-height:125%;font-family:sans-serif;letter-spacing:0px;word-spacing:0px;display:inline;fill:#00bfff;fill-opacity:1;stroke:none;stroke-width:1px;stroke-linecap:butt;stroke-linejoin:miter;stroke-opacity:1"
       id="text4210">
      <path
         d="m 72.848086,513.56897 q 0,1.18408 -0.427247,2.24609 -0.415039,1.04981 -1.159668,1.79444 -0.939941,0.92773 -2.209473,1.4038 -1.269531,0.47608 -3.210449,0.47608 l -2.050782,0 0,6.7749 -2.416993,0 0,-18.17627 4.565431,0 q 1.611328,0 2.746582,0.26855 1.135254,0.26856 2.001954,0.8667 1.013183,0.6958 1.586914,1.77002 0.573731,1.06202 0.573731,2.57569 z m -2.514649,0.061 q 0,-0.93994 -0.32959,-1.63574 -0.317383,-0.6958 -0.976563,-1.13525 -0.57373,-0.37842 -1.342773,-0.53711 -0.756837,-0.15869 -1.892091,-0.15869 l -2.001953,0 0,7.26318 1.647949,0 q 1.464844,0 2.368165,-0.23193 0.90332,-0.24414 1.501465,-0.8545 0.537109,-0.54931 0.78125,-1.19628 0.244141,-0.64698 0.244141,-1.51368 z"
         style="font-style:normal;font-variant:normal;font-weight:normal;font-stretch:normal;font-size:25.00000381px;font-family:Tahoma;-inkscape-font-specification:Tahoma;fill:#8a2be2"
         id="path4227"
         inkscape:connector-curvature="0" />
      <path
         d="m 80.343204,526.58167 q -3.259278,0 -5.065919,-1.83106 -1.794434,-1.84326 -1.794434,-5.22461 0,-3.33252 1.745606,-5.29785 1.745606,-1.97754 4.56543,-1.97754 1.269532,0 2.246094,0.36621 0.976563,0.36621 1.708985,1.14746 0.732422,0.78125 1.123047,1.9165 0.390625,1.12305 0.390625,2.75879 l 0,1.24512 -9.448244,0 q 0,2.38037 1.19629,3.6377 1.196289,1.25732 3.308106,1.25732 0.756836,0 1.477051,-0.1709 0.732422,-0.1709 1.318359,-0.43945 0.622559,-0.28076 1.049805,-0.53711 0.427246,-0.26855 0.708008,-0.50049 l 0.134277,0 0,2.50244 q -0.402832,0.1587 -1.000976,0.40284 -0.598145,0.23193 -1.074219,0.36621 -0.671387,0.1831 -1.220704,0.28076 -0.537109,0.0977 -1.367187,0.0977 z m 2.685547,-8.65479 q -0.02441,-0.92774 -0.219727,-1.59912 -0.195312,-0.67139 -0.561523,-1.13526 -0.402832,-0.51269 -1.037598,-0.78125 -0.622559,-0.26855 -1.550293,-0.26855 -0.915528,0 -1.5625,0.28076 -0.634766,0.26855 -1.159668,0.79346 -0.512696,0.53711 -0.781251,1.19629 -0.268554,0.64697 -0.341797,1.51367 l 7.214357,0 z"
         style="font-style:normal;font-variant:normal;font-weight:normal;font-stretch:normal;font-size:25.00000381px;font-family:Tahoma;-inkscape-font-specification:Tahoma;fill:#00bfff"
         id="path4229"
         inkscape:connector-curvature="0" />
      <path
         d="m 98.824652,519.45276 q 0,3.44238 -1.660157,5.32226 -1.660156,1.86768 -4.418946,1.86768 -2.844238,0 -4.479981,-1.92871 -1.623535,-1.94092 -1.623535,-5.26123 0,-3.41797 1.672363,-5.31006 1.684571,-1.89209 4.431153,-1.89209 2.75879,0 4.418946,1.89209 1.660157,1.87988 1.660157,5.31006 z m -2.368165,0 q 0,-2.64893 -0.964355,-3.93067 -0.964356,-1.29394 -2.746583,-1.29394 -1.794434,0 -2.770996,1.29394 -0.964356,1.28174 -0.964356,3.93067 0,2.56347 0.964356,3.89404 0.976562,1.31836 2.770996,1.31836 1.77002,0 2.734376,-1.29394 0.976562,-1.30616 0.976562,-3.91846 z"
         style="font-style:normal;font-variant:normal;font-weight:normal;font-stretch:normal;font-size:25.00000381px;font-family:Tahoma;-inkscape-font-specification:Tahoma;fill:#00bfff"
         id="path4231"
         inkscape:connector-curvature="0" />
      <path
         d="m 112.6186,519.08655 q 0,3.40576 -1.63574,5.43213 -1.62354,2.01416 -4.11377,2.01416 -1.01319,0 -1.79444,-0.23194 -0.78125,-0.23193 -1.59912,-0.72021 l 0,5.71289 -2.29492,0 0,-18.66455 2.29492,0 0,1.42822 q 0.8545,-0.76904 1.89209,-1.28174 1.04981,-0.5249 2.28272,-0.5249 2.34375,0 3.6499,1.85547 1.31836,1.85547 1.31836,4.98047 z m -2.36816,0.25634 q 0,-2.33154 -0.74463,-3.61328 -0.74463,-1.29394 -2.417,-1.29394 -0.97656,0 -1.89209,0.43945 -0.90332,0.42725 -1.72119,1.11084 l 0,7.72705 q 0.90332,0.43946 1.53809,0.59815 0.64697,0.15869 1.47705,0.15869 1.78223,0 2.771,-1.30615 0.98877,-1.30616 0.98877,-3.82081 z"
         style="font-style:normal;font-variant:normal;font-weight:normal;font-stretch:normal;font-size:25.00000381px;font-family:Tahoma;-inkscape-font-specification:Tahoma;fill:#00bfff"
         id="path4233"
         inkscape:connector-curvature="0" />
      <path
         d="m 117.34272,526.26428 -2.29492,0 0,-18.99414 2.29492,0 0,18.99414 z"
         style="font-style:normal;font-variant:normal;font-weight:normal;font-stretch:normal;font-size:25.00000381px;font-family:Tahoma;-inkscape-font-specification:Tahoma;fill:#00bfff"
         id="path4235"
         inkscape:connector-curvature="0" />
      <path
         d="m 126.63227,526.58167 q -3.25928,0 -5.06592,-1.83106 -1.79443,-1.84326 -1.79443,-5.22461 0,-3.33252 1.74561,-5.29785 1.7456,-1.97754 4.56543,-1.97754 1.26953,0 2.24609,0.36621 0.97656,0.36621 1.70898,1.14746 0.73243,0.78125 1.12305,1.9165 0.39063,1.12305 0.39063,2.75879 l 0,1.24512 -9.44825,0 q 0,2.38037 1.19629,3.6377 1.19629,1.25732 3.30811,1.25732 0.75683,0 1.47705,-0.1709 0.73242,-0.1709 1.31836,-0.43945 0.62256,-0.28076 1.0498,-0.53711 0.42725,-0.26855 0.70801,-0.50049 l 0.13428,0 0,2.50244 q -0.40283,0.1587 -1.00098,0.40284 -0.59814,0.23193 -1.07422,0.36621 -0.67138,0.1831 -1.2207,0.28076 -0.53711,0.0977 -1.36719,0.0977 z m 2.68555,-8.65479 q -0.0244,-0.92774 -0.21973,-1.59912 -0.19531,-0.67139 -0.56152,-1.13526 -0.40283,-0.51269 -1.0376,-0.78125 -0.62256,-0.26855 -1.55029,-0.26855 -0.91553,0 -1.5625,0.28076 -0.63477,0.26855 -1.15967,0.79346 -0.5127,0.53711 -0.78125,1.19629 -0.26856,0.64697 -0.3418,1.51367 l 7.21436,0 z"
         style="font-style:normal;font-variant:normal;font-weight:normal;font-stretch:normal;font-size:25.00000381px;font-family:Tahoma;-inkscape-font-specification:Tahoma;fill:#00bfff"
         id="path4237"
         inkscape:connector-curvature="0" />
      <path
         d="m 141.18305,526.59387 q -1.78222,0 -3.28369,-0.59814 -1.48926,-0.59815 -2.57568,-1.78223 -1.08643,-1.18408 -1.68457,-2.9541 -0.59815,-1.77002 -0.59815,-4.06494 0,-2.28272 0.57373,-3.9795 0.58594,-1.69677 1.69678,-2.9541 1.08643,-1.2207 2.57568,-1.85547 1.48926,-0.64697 3.33252,-0.64697 0.91553,0 1.70899,0.13428 0.80566,0.13427 1.48926,0.34179 0.58593,0.18311 1.19629,0.46387 0.62256,0.26856 1.2207,0.59815 l 0,2.91748 -0.19531,0 q -0.31739,-0.29297 -0.81787,-0.70801 -0.50049,-0.41504 -1.22071,-0.81787 -0.6958,-0.37842 -1.51367,-0.62256 -0.81787,-0.24414 -1.89209,-0.24414 -1.15967,0 -2.19727,0.47607 -1.03759,0.47608 -1.81884,1.40381 -0.76905,0.92774 -1.19629,2.33155 -0.42725,1.4038 -0.42725,3.16162 0,1.86767 0.45166,3.22265 0.45166,1.34278 1.23291,2.27051 0.75684,0.90332 1.78223,1.36719 1.02539,0.45166 2.17285,0.45166 1.04981,0 1.94092,-0.25635 0.89111,-0.25635 1.58691,-0.64697 0.67139,-0.37842 1.15967,-0.76904 0.48828,-0.40284 0.76904,-0.6836 l 0.18311,0 0,2.88086 q -0.59814,0.28076 -1.13525,0.53711 -0.52491,0.25635 -1.28174,0.50049 -0.79346,0.25635 -1.47705,0.39062 -0.67139,0.13428 -1.75782,0.13428 z"
         style="font-style:normal;font-variant:normal;font-weight:normal;font-stretch:normal;font-size:25.00000381px;font-family:Tahoma;-inkscape-font-specification:Tahoma;fill:#8a2be2"
         id="path4239"
         inkscape:connector-curvature="0" />
      <path
         d="m 160.10396,519.45276 q 0,3.44238 -1.66016,5.32226 -1.66015,1.86768 -4.41894,1.86768 -2.84424,0 -4.47998,-1.92871 -1.62354,-1.94092 -1.62354,-5.26123 0,-3.41797 1.67236,-5.31006 1.68458,-1.89209 4.43116,-1.89209 2.75879,0 4.41894,1.89209 1.66016,1.87988 1.66016,5.31006 z m -2.36816,0 q 0,-2.64893 -0.96436,-3.93067 -0.96436,-1.29394 -2.74658,-1.29394 -1.79444,0 -2.771,1.29394 -0.96435,1.28174 -0.96435,3.93067 0,2.56347 0.96435,3.89404 0.97656,1.31836 2.771,1.31836 1.77002,0 2.73437,-1.29394 0.97657,-1.30616 0.97657,-3.91846 z"
         style="font-style:normal;font-variant:normal;font-weight:normal;font-stretch:normal;font-size:25.00000381px;font-family:Tahoma;-inkscape-font-specification:Tahoma;fill:#00bfff"
         id="path4241"
         inkscape:connector-curvature="0" />
      <path
         d="m 173.17769,526.26428 -2.29492,0 0,-7.76367 q 0,-0.93994 -0.0977,-1.74561 -0.0855,-0.81787 -0.34179,-1.30615 -0.28077,-0.51269 -0.78126,-0.75684 -0.50048,-0.25634 -1.36718,-0.25634 -0.8545,0 -1.77002,0.46386 -0.90332,0.45166 -1.77002,1.18409 l 0,10.18066 -2.29492,0 0,-13.63525 2.29492,0 0,1.51367 q 1.02539,-0.91553 2.02637,-1.40381 1.00097,-0.48828 2.11181,-0.48828 2.01416,0 3.14942,1.33056 1.13525,1.31836 1.13525,3.83301 l 0,8.8501 z"
         style="font-style:normal;font-variant:normal;font-weight:normal;font-stretch:normal;font-size:25.00000381px;font-family:Tahoma;-inkscape-font-specification:Tahoma;fill:#00bfff"
         id="path4243"
         inkscape:connector-curvature="0" />
      <path
         d="m 187.14253,526.26428 -2.29492,0 0,-7.76367 q 0,-0.93994 -0.0977,-1.74561 -0.0854,-0.81787 -0.3418,-1.30615 -0.28076,-0.51269 -0.78125,-0.75684 -0.50049,-0.25634 -1.36719,-0.25634 -0.85449,0 -1.77002,0.46386 -0.90332,0.45166 -1.77002,1.18409 l 0,10.18066 -2.29492,0 0,-13.63525 2.29492,0 0,1.51367 q 1.02539,-0.91553 2.02637,-1.40381 1.00098,-0.48828 2.11182,-0.48828 2.01416,0 3.14941,1.33056 1.13525,1.31836 1.13525,3.83301 l 0,8.8501 z"
         style="font-style:normal;font-variant:normal;font-weight:normal;font-stretch:normal;font-size:25.00000381px;font-family:Tahoma;-inkscape-font-specification:Tahoma;fill:#00bfff"
         id="path4245"
         inkscape:connector-curvature="0" />
      <path
         d="m 196.31001,526.58167 q -3.25927,0 -5.06591,-1.83106 -1.79444,-1.84326 -1.79444,-5.22461 0,-3.33252 1.74561,-5.29785 1.7456,-1.97754 4.56543,-1.97754 1.26953,0 2.24609,0.36621 0.97656,0.36621 1.70899,1.14746 0.73242,0.78125 1.12304,1.9165 0.39063,1.12305 0.39063,2.75879 l 0,1.24512 -9.44825,0 q 0,2.38037 1.19629,3.6377 1.19629,1.25732 3.30811,1.25732 0.75684,0 1.47705,-0.1709 0.73242,-0.1709 1.31836,-0.43945 0.62256,-0.28076 1.04981,-0.53711 0.42724,-0.26855 0.708,-0.50049 l 0.13428,0 0,2.50244 q -0.40283,0.1587 -1.00098,0.40284 -0.59814,0.23193 -1.07422,0.36621 -0.67138,0.1831 -1.2207,0.28076 -0.53711,0.0977 -1.36719,0.0977 z m 2.68555,-8.65479 q -0.0244,-0.92774 -0.21973,-1.59912 -0.19531,-0.67139 -0.56152,-1.13526 -0.40283,-0.51269 -1.0376,-0.78125 -0.62256,-0.26855 -1.55029,-0.26855 -0.91553,0 -1.5625,0.28076 -0.63477,0.26855 -1.15967,0.79346 -0.51269,0.53711 -0.78125,1.19629 -0.26855,0.64697 -0.3418,1.51367 l 7.21436,0 z"
         style="font-style:normal;font-variant:normal;font-weight:normal;font-stretch:normal;font-size:25.00000381px;font-family:Tahoma;-inkscape-font-specification:Tahoma;fill:#00bfff"
         id="path4247"
         inkscape:connector-curvature="0" />
      <path
         d="m 208.99312,526.56946 q -1.40381,0 -2.57568,-0.42725 -1.17188,-0.43945 -2.01417,-1.31836 -0.84228,-0.8789 -1.30615,-2.20947 -0.46386,-1.34277 -0.46386,-3.14942 0,-1.79443 0.47607,-3.10058 0.48828,-1.30615 1.29394,-2.19727 0.80567,-0.89111 2.00196,-1.36719 1.20849,-0.48828 2.58789,-0.48828 1.12305,0 2.16064,0.31739 1.04981,0.31738 1.86768,0.73242 l 0,2.57568 -0.13428,0 q -0.24414,-0.20752 -0.63476,-0.47607 -0.37842,-0.26856 -0.92774,-0.54932 -0.47607,-0.24414 -1.12304,-0.42724 -0.64698,-0.18311 -1.24512,-0.18311 -1.78223,0 -2.86865,1.35498 -1.07422,1.34277 -1.07422,3.80859 0,2.417 1.03759,3.77198 1.04981,1.34277 2.90528,1.34277 1.12305,0 2.13623,-0.46387 1.01318,-0.46386 1.79443,-1.19628 l 0.13428,0 0,2.57568 q -0.3418,0.15869 -0.85449,0.39062 -0.5127,0.21973 -0.92774,0.32959 -0.58593,0.1709 -1.0498,0.25635 -0.46387,0.0977 -1.19629,0.0977 z"
         style="font-style:normal;font-variant:normal;font-weight:normal;font-stretch:normal;font-size:25.00000381px;font-family:Tahoma;-inkscape-font-specification:Tahoma;fill:#00bfff"
         id="path4249"
         inkscape:connector-curvature="0" />
      <path
         d="m 219.27144,526.53284 q -1.87988,0 -2.92969,-1.06201 -1.0498,-1.07422 -1.0498,-3.38135 l 0,-7.55616 -1.5503,0 0,-1.90429 1.5503,0 0,-3.91846 2.29492,0 0,3.91846 4.22363,0 0,1.90429 -4.22363,0 0,6.48194 q 0,1.0376 0.0366,1.59912 0.0366,0.56152 0.28076,1.0498 0.20752,0.42725 0.67139,0.64698 0.46387,0.20752 1.25732,0.20752 0.56153,0 1.08643,-0.15869 0.5249,-0.1709 0.75684,-0.28077 l 0.13427,0 0,2.06299 q -0.64697,0.18311 -1.31836,0.28076 -0.65918,0.10987 -1.2207,0.10987 z"
         style="font-style:normal;font-variant:normal;font-weight:normal;font-stretch:normal;font-size:25.00000381px;font-family:Tahoma;-inkscape-font-specification:Tahoma;fill:#00bfff"
         id="path4251"
         inkscape:connector-curvature="0" />
    </g>
  </g>
</svg>
